<svg width="20" height="19" viewBox="0 0 20 19" fill="none" xmlns="http://www.w3.org/2000/svg">
<path d="M10.576 13.1105H16.48C17.5552 13.1105 18.4 12.2549 18.4 11.2313V3.1793C18.4 2.1557 17.5552 1.3001 16.48 1.3001H3.52C2.4448 1.3001 1.6 2.1557 1.6 3.1793V11.2313C1.6 12.2549 2.4448 13.1105 3.52 13.1105H5.44V16.9001H5.4436L5.446 16.8989L10.5772 13.1105H10.576ZM6.16 17.8637C5.90455 18.052 5.58537 18.1325 5.27117 18.0878C4.95697 18.0432 4.67286 17.8769 4.48 17.6249C4.32539 17.4212 4.24154 17.1726 4.2412 16.9169V14.3105H3.5212C1.798 14.3105 0.4012 12.9317 0.4012 11.2313V3.1793C0.4 1.4789 1.7968 0.100098 3.52 0.100098H16.48C18.2032 0.100098 19.6 1.4789 19.6 3.1793V11.2313C19.6 12.9329 18.2032 14.3105 16.48 14.3105H10.972L6.1588 17.8637H6.16Z" fill="#F1FCF2"/>
</svg>
