<svg width="18" height="20" viewBox="0 0 18 20" fill="none" xmlns="http://www.w3.org/2000/svg">
<path d="M9 3C11.2543 3 13.4163 3.89553 15.0104 5.48959C16.6045 7.08365 17.5 9.24566 17.5 11.5C17.5 13.7543 16.6045 15.9163 15.0104 17.5104C13.4163 19.1045 11.2543 20 9 20C6.74566 20 4.58365 19.1045 2.98959 17.5104C1.39553 15.9163 0.5 13.7543 0.5 11.5C0.5 9.24566 1.39553 7.08365 2.98959 5.48959C4.58365 3.89553 6.74566 3 9 3V3ZM9 4.5C7.14348 4.5 5.36301 5.2375 4.05025 6.55025C2.7375 7.86301 2 9.64348 2 11.5C2 13.3565 2.7375 15.137 4.05025 16.4497C5.36301 17.7625 7.14348 18.5 9 18.5C10.8565 18.5 12.637 17.7625 13.9497 16.4497C15.2625 15.137 16 13.3565 16 11.5C16 9.64348 15.2625 7.86301 13.9497 6.55025C12.637 5.2375 10.8565 4.5 9 4.5V4.5ZM9 6C9.18124 6.00001 9.35634 6.06564 9.49293 6.18477C9.62952 6.30389 9.71835 6.46845 9.743 6.648L9.75 6.75V11.25C9.74994 11.44 9.67776 11.6229 9.54803 11.7618C9.4183 11.9006 9.2407 11.9851 9.05112 11.998C8.86154 12.011 8.67411 11.9515 8.5267 11.8316C8.37929 11.7117 8.2829 11.5403 8.257 11.352L8.25 11.25V6.75C8.25 6.55109 8.32902 6.36032 8.46967 6.21967C8.61032 6.07902 8.80109 6 9 6V6ZM16.147 3.114L16.23 3.174L17.388 4.138C17.533 4.25995 17.6265 4.43225 17.6496 4.62029C17.6728 4.80833 17.6239 4.99817 17.5129 5.15166C17.4018 5.30515 17.2368 5.41092 17.0509 5.44771C16.8651 5.4845 16.6722 5.4496 16.511 5.35L16.429 5.29L15.27 4.326C15.125 4.20405 15.0315 4.03175 15.0084 3.84371C14.9852 3.65567 15.0341 3.46584 15.1451 3.31234C15.2562 3.15885 15.4212 3.05308 15.6071 3.01629C15.7929 2.9795 15.9858 3.0144 16.147 3.114V3.114ZM11.25 0.5C11.44 0.500058 11.6229 0.572245 11.7618 0.701973C11.9006 0.831701 11.9851 1.0093 11.998 1.19888C12.011 1.38846 11.9515 1.57589 11.8316 1.7233C11.7117 1.87071 11.5403 1.9671 11.352 1.993L11.25 2H6.75C6.55998 1.99994 6.37706 1.92776 6.23821 1.79803C6.09936 1.6683 6.01493 1.4907 6.00197 1.30112C5.98902 1.11154 6.04852 0.924108 6.16843 0.776701C6.28835 0.629294 6.45975 0.532901 6.648 0.507L6.75 0.5H11.25Z" fill="#F1FCF2"/>
</svg>
