<svg width="19" height="24" viewBox="0 0 19 24" fill="none" xmlns="http://www.w3.org/2000/svg">
<path d="M10.296 23.511C8.862 23.871 7.5315 22.785 7.434 21.381C7.326 19.806 7.089 18.3585 6.792 17.496C6.6045 16.956 6.0735 15.978 5.232 15.039C4.3965 14.103 3.309 13.2705 2.0355 12.924C1.0275 12.648 0 11.775 0 10.5V4.5C0 3.2325 1.023 2.304 2.172 2.181C3.777 2.0115 4.518 1.5585 5.274 1.0965L5.346 1.053C5.754 0.804 6.213 0.5295 6.801 0.327C7.3965 0.12 8.0925 0 9 0H14.25C15.6555 0 16.6485 0.717 17.151 1.596C17.397 2.0265 17.532 2.5065 17.532 2.9655C17.532 3.1935 17.4975 3.4335 17.4165 3.6615C17.718 4.0545 17.9865 4.527 18.1485 5.0115C18.3135 5.5065 18.4065 6.1545 18.1545 6.7365C18.258 6.9315 18.3345 7.1385 18.393 7.341C18.5085 7.746 18.5625 8.1915 18.5625 8.625C18.5625 9.0585 18.5085 9.504 18.393 9.909C18.3405 10.089 18.273 10.275 18.186 10.4535C18.777 11.31 18.813 12.2535 18.537 13.053C18.228 13.941 17.514 14.703 16.737 14.961C15.4665 15.3855 14.0325 15.375 12.963 15.2775C12.741 15.2575 12.5194 15.2325 12.2985 15.2025C12.8192 17.4314 12.7872 19.7538 12.2055 21.9675C11.9985 22.7295 11.3805 23.2395 10.6875 23.4135L10.296 23.511ZM14.25 1.5H9C8.235 1.5 7.7055 1.602 7.29 1.7445C6.8685 1.89 6.531 2.088 6.126 2.334L6.066 2.3715C5.2335 2.8785 4.269 3.4665 2.331 3.6735C1.8315 3.726 1.5 4.1085 1.5 4.4985V10.5C1.5 10.8825 1.839 11.3145 2.43 11.475C4.0725 11.925 5.3955 12.9705 6.351 14.0385C7.3035 15.1035 7.947 16.251 8.208 17.004C8.5725 18.054 8.8185 19.656 8.931 21.279C8.9685 21.822 9.471 22.1715 9.9315 22.056L10.3245 21.9585C10.5645 21.8985 10.7115 21.7425 10.7565 21.576C11.3694 19.2415 11.2938 16.7795 10.539 14.487C10.4966 14.3596 10.4893 14.2232 10.5176 14.092C10.546 13.9607 10.609 13.8395 10.7002 13.741C10.7914 13.6425 10.9074 13.5702 11.036 13.5318C11.1646 13.4933 11.3012 13.4901 11.4315 13.5225H11.436L11.457 13.5285L11.544 13.548C12.0569 13.6569 12.5758 13.7355 13.098 13.7835C14.0925 13.8735 15.2835 13.8645 16.263 13.539C16.5255 13.4505 16.938 13.0875 17.118 12.5625C17.2785 12.1005 17.2485 11.5575 16.719 11.031L16.1895 10.5L16.719 9.969C16.7835 9.906 16.8765 9.759 16.95 9.4965C17.022 9.246 17.0625 8.9415 17.0625 8.625C17.0625 8.3085 17.022 8.004 16.95 7.7535C16.875 7.4925 16.7835 7.344 16.719 7.281L16.1895 6.75L16.719 6.219C16.7895 6.1485 16.8825 5.955 16.7265 5.487C16.5638 5.03516 16.3054 4.62379 15.969 4.281L15.4395 3.75L15.969 3.219C15.978 3.2115 16.0305 3.144 16.0305 2.964C16.0236 2.74449 15.9612 2.53032 15.849 2.3415C15.6 1.908 15.0945 1.5 14.25 1.5Z" fill="#F1FCF2"/>
</svg>
