<svg width="24" height="23" viewBox="0 0 24 23" fill="none" xmlns="http://www.w3.org/2000/svg">
<path d="M11.9999 4.12201L10.9244 3.01651C8.39995 0.421512 3.77095 1.31701 2.09995 4.57951C1.31545 6.11401 1.13845 8.32951 2.57095 11.157C3.95095 13.8795 6.82195 17.1405 11.9999 20.6925C17.1779 17.1405 20.0474 13.8795 21.4289 11.157C22.8614 8.32801 22.6859 6.11401 21.8999 4.57951C20.2289 1.31701 15.5999 0.420012 13.0754 3.01501L11.9999 4.12201ZM11.9999 22.5C-10.9996 7.30201 4.91845 -4.55999 11.7359 1.71451C11.8259 1.79701 11.9144 1.88251 11.9999 1.97101C12.0846 1.88259 12.1726 1.79753 12.2639 1.71601C19.0799 -4.56299 34.9994 7.30051 11.9999 22.5Z" fill="#F1FCF2"/>
</svg>
