<svg width="22" height="13" viewBox="0 0 22 13" fill="none" xmlns="http://www.w3.org/2000/svg">
<path d="M9.13 9.84202L8.342 12.782L6.41099 12.264L7.19799 9.32502C6.01996 8.89054 4.92511 8.25738 3.96099 7.45302L1.80799 9.60702L0.392995 8.19202L2.54699 6.03902C1.33107 4.58278 0.514083 2.83578 0.175995 0.969016L1.07599 0.804016C3.96522 2.88719 7.43808 4.00562 11 4.00002C14.704 4.00002 18.131 2.81502 20.924 0.804016L21.824 0.968016C21.4864 2.83503 20.6697 4.58238 19.454 6.03902L21.607 8.19202L20.192 9.60702L18.039 7.45302C17.0749 8.25738 15.98 8.89054 14.802 9.32502L15.589 12.265L13.658 12.782L12.87 9.84202C11.6323 10.0541 10.3676 10.0541 9.13 9.84202Z" fill="#F1FCF2"/>
</svg>
