<svg width="22" height="18" viewBox="0 0 22 18" fill="none" xmlns="http://www.w3.org/2000/svg">
<path d="M0.181 9C1.121 3.88 5.608 0 11 0C16.392 0 20.878 3.88 21.819 9C20.879 14.12 16.392 18 11 18C5.608 18 1.122 14.12 0.181 9ZM11 14C12.3261 14 13.5979 13.4732 14.5355 12.5355C15.4732 11.5979 16 10.3261 16 9C16 7.67392 15.4732 6.40215 14.5355 5.46447C13.5979 4.52678 12.3261 4 11 4C9.67392 4 8.40215 4.52678 7.46447 5.46447C6.52678 6.40215 6 7.67392 6 9C6 10.3261 6.52678 11.5979 7.46447 12.5355C8.40215 13.4732 9.67392 14 11 14ZM11 12C10.2044 12 9.44129 11.6839 8.87868 11.1213C8.31607 10.5587 8 9.79565 8 9C8 8.20435 8.31607 7.44129 8.87868 6.87868C9.44129 6.31607 10.2044 6 11 6C11.7956 6 12.5587 6.31607 13.1213 6.87868C13.6839 7.44129 14 8.20435 14 9C14 9.79565 13.6839 10.5587 13.1213 11.1213C12.5587 11.6839 11.7956 12 11 12Z" fill="#F1FCF2"/>
</svg>
