<svg width="22" height="22" viewBox="0 0 22 22" fill="none" xmlns="http://www.w3.org/2000/svg">
<path d="M13.742 0.083009C13.8406 0.082833 13.9382 0.102084 14.0293 0.139662C14.1204 0.177239 14.2032 0.232406 14.273 0.302009L21.698 7.72701C21.8386 7.86765 21.9176 8.05839 21.9176 8.25726C21.9176 8.45613 21.8386 8.64686 21.698 8.78751C20.978 9.50751 20.09 9.66951 19.4435 9.66951C19.178 9.66951 18.941 9.64251 18.7535 9.61101L14.0525 14.312C14.1763 14.8106 14.2566 15.319 14.2925 15.8315C14.3615 16.8845 14.2445 18.362 13.2125 19.394C13.0719 19.5346 12.8811 19.6136 12.6823 19.6136C12.4834 19.6136 12.2927 19.5346 12.152 19.394L7.90851 15.152L3.13551 19.925C2.84301 20.2175 1.30701 21.278 1.01451 20.9855C0.722007 20.693 1.78251 19.1555 2.07501 18.8645L6.84801 14.0915L2.60601 9.84801C2.4654 9.70736 2.38642 9.51663 2.38642 9.31776C2.38642 9.11889 2.4654 8.92815 2.60601 8.78751C3.63801 7.75551 5.11551 7.63701 6.16851 7.70751C6.68099 7.74342 7.1894 7.82372 7.68801 7.94751L12.389 3.24801C12.3498 3.01958 12.3297 2.78828 12.329 2.55651C12.329 1.91151 12.491 1.02351 13.2125 0.302009C13.3531 0.161806 13.5435 0.0830512 13.742 0.083009ZM13.925 3.25101V3.24801V3.25101ZM13.925 3.24801V3.25101C13.9683 3.38296 13.9742 3.52435 13.9418 3.65942C13.9095 3.7945 13.8403 3.91794 13.742 4.01601L8.43951 9.31701C8.34098 9.41511 8.21713 9.48389 8.08178 9.51568C7.94642 9.54747 7.8049 9.541 7.67301 9.49701H7.67001L7.64901 9.49101C7.5063 9.44826 7.36222 9.41024 7.21701 9.37701C6.83967 9.28899 6.45598 9.23081 6.06951 9.20301C5.43651 9.16101 4.81551 9.21501 4.30701 9.42801L12.572 17.6915C12.7835 17.1815 12.8375 16.562 12.7955 15.929C12.7573 15.3931 12.6607 14.863 12.5075 14.348L12.5015 14.3285V14.327C12.4572 14.1949 12.4506 14.0531 12.4824 13.9174C12.5142 13.7818 12.5831 13.6577 12.6815 13.559L17.9855 8.25651C18.0876 8.15375 18.2174 8.08277 18.359 8.05216C18.5006 8.02155 18.648 8.03261 18.7835 8.08401L18.9275 8.11701C19.058 8.14251 19.2395 8.16801 19.4435 8.16801C19.6145 8.16801 19.7885 8.15151 19.958 8.10801L13.8905 2.04201C13.847 2.21151 13.8305 2.38701 13.8305 2.55651C13.8312 2.78958 13.8625 3.02156 13.9235 3.24651L13.925 3.24801Z" fill="#F1FCF2"/>
</svg>
