<svg width="19" height="21" viewBox="0 0 19 21" fill="none" xmlns="http://www.w3.org/2000/svg">
<path d="M9.5 11C10.6935 11 11.8381 10.5259 12.682 9.68198C13.5259 8.83807 14 7.69347 14 6.5C14 5.30653 13.5259 4.16193 12.682 3.31802C11.8381 2.47411 10.6935 2 9.5 2C8.30653 2 7.16193 2.47411 6.31802 3.31802C5.47411 4.16193 5 5.30653 5 6.5C5 7.69347 5.47411 8.83807 6.31802 9.68198C7.16193 10.5259 8.30653 11 9.5 11ZM9.5 12.5C7.9087 12.5 6.38258 11.8679 5.25736 10.7426C4.13214 9.61742 3.5 8.0913 3.5 6.5C3.5 4.9087 4.13214 3.38258 5.25736 2.25736C6.38258 1.13214 7.9087 0.5 9.5 0.5C11.0913 0.5 12.6174 1.13214 13.7426 2.25736C14.8679 3.38258 15.5 4.9087 15.5 6.5C15.5 8.0913 14.8679 9.61742 13.7426 10.7426C12.6174 11.8679 11.0913 12.5 9.5 12.5ZM17 20V17.75C17 17.1533 16.7629 16.581 16.341 16.159C15.919 15.7371 15.3467 15.5 14.75 15.5H4.25C3.65326 15.5 3.08097 15.7371 2.65901 16.159C2.23705 16.581 2 17.1533 2 17.75V20C2 20.1989 1.92098 20.3897 1.78033 20.5303C1.63968 20.671 1.44891 20.75 1.25 20.75C1.05109 20.75 0.860322 20.671 0.71967 20.5303C0.579018 20.3897 0.5 20.1989 0.5 20V17.75C0.5 16.7554 0.895088 15.8016 1.59835 15.0983C2.30161 14.3951 3.25544 14 4.25 14H14.75C15.7446 14 16.6984 14.3951 17.4016 15.0983C18.1049 15.8016 18.5 16.7554 18.5 17.75V20C18.5 20.1989 18.421 20.3897 18.2803 20.5303C18.1397 20.671 17.9489 20.75 17.75 20.75C17.5511 20.75 17.3603 20.671 17.2197 20.5303C17.079 20.3897 17 20.1989 17 20Z" fill="#F1FCF2"/>
</svg>
