<svg width="19" height="22" viewBox="0 0 19 22" fill="none" xmlns="http://www.w3.org/2000/svg">
<path d="M14.5 14C13.9998 13.9992 13.5045 14.0992 13.0438 14.2941C12.5832 14.489 12.1665 14.7748 11.8187 15.1344L7.49687 12.3594C7.83423 11.4845 7.83423 10.5155 7.49687 9.64062L11.8187 6.86562C12.4267 7.48742 13.2319 7.87858 14.0965 7.97214C14.9612 8.0657 15.8314 7.85585 16.5583 7.3785C17.2853 6.90116 17.8237 6.186 18.0815 5.35543C18.3392 4.52486 18.3003 3.63052 17.9714 2.82548C17.6424 2.02044 17.0439 1.35476 16.2783 0.942359C15.5126 0.529962 14.6274 0.396495 13.7742 0.564802C12.921 0.733109 12.1528 1.19272 11.6012 1.86498C11.0495 2.53724 10.7486 3.38035 10.75 4.25C10.7515 4.7147 10.8373 5.17528 11.0031 5.60937L6.68124 8.38437C6.16091 7.84981 5.49297 7.48258 4.76283 7.32965C4.03268 7.17671 3.27351 7.24503 2.5824 7.52585C1.89128 7.80667 1.29963 8.28724 0.883085 8.9061C0.466544 9.52497 0.244049 10.254 0.244049 11C0.244049 11.746 0.466544 12.475 0.883085 13.0939C1.29963 13.7128 1.89128 14.1933 2.5824 14.4742C3.27351 14.755 4.03268 14.8233 4.76283 14.6704C5.49297 14.5174 6.16091 14.1502 6.68124 13.6156L11.0031 16.3906C10.8373 16.8247 10.7515 17.2853 10.75 17.75C10.75 18.4917 10.9699 19.2167 11.382 19.8334C11.794 20.4501 12.3797 20.9307 13.0649 21.2145C13.7502 21.4984 14.5042 21.5726 15.2316 21.4279C15.959 21.2832 16.6272 20.9261 17.1516 20.4016C17.6761 19.8772 18.0332 19.209 18.1779 18.4816C18.3226 17.7542 18.2484 17.0002 17.9645 16.3149C17.6807 15.6297 17.2001 15.044 16.5834 14.632C15.9667 14.2199 15.2417 14 14.5 14ZM14.5 2C14.945 2 15.38 2.13196 15.75 2.37919C16.12 2.62643 16.4084 2.97783 16.5787 3.38896C16.749 3.8001 16.7936 4.2525 16.7068 4.68895C16.6199 5.12541 16.4056 5.52632 16.091 5.84099C15.7763 6.15566 15.3754 6.36995 14.9389 6.45677C14.5025 6.54358 14.0501 6.49903 13.639 6.32873C13.2278 6.15843 12.8764 5.87004 12.6292 5.50003C12.382 5.13002 12.25 4.69501 12.25 4.25C12.2525 3.65402 12.4903 3.08316 12.9117 2.66174C13.3332 2.24031 13.904 2.00247 14.5 2ZM3.99999 13.25C3.55498 13.25 3.11997 13.118 2.74996 12.8708C2.37995 12.6236 2.09156 12.2722 1.92126 11.861C1.75097 11.4499 1.70641 10.9975 1.79323 10.561C1.88004 10.1246 2.09433 9.72368 2.409 9.40901C2.72367 9.09434 3.12458 8.88005 3.56104 8.79323C3.9975 8.70642 4.4499 8.75097 4.86103 8.92127C5.27216 9.09157 5.62357 9.37996 5.8708 9.74997C6.11803 10.12 6.24999 10.555 6.24999 11C6.24752 11.596 6.00968 12.1668 5.58826 12.5883C5.16683 13.0097 4.59597 13.2475 3.99999 13.25ZM14.5 20C14.055 20 13.62 19.868 13.25 19.6208C12.8799 19.3736 12.5916 19.0222 12.4213 18.611C12.251 18.1999 12.2064 17.7475 12.2932 17.311C12.38 16.8746 12.5943 16.4737 12.909 16.159C13.2237 15.8443 13.6246 15.63 14.061 15.5432C14.4975 15.4564 14.9499 15.501 15.361 15.6713C15.7722 15.8416 16.1236 16.13 16.3708 16.5C16.618 16.87 16.75 17.305 16.75 17.75C16.7475 18.346 16.5097 18.9168 16.0883 19.3383C15.6668 19.7597 15.096 19.9975 14.5 20Z" fill="#F1FCF2"/>
</svg>
