<svg width="19" height="18" viewBox="0 0 19 18" fill="none" xmlns="http://www.w3.org/2000/svg">
<path d="M13.125 10C12.9592 10 12.8003 10.0658 12.6831 10.1831C12.5658 10.3003 12.5 10.4592 12.5 10.625C12.5 10.7908 12.5658 10.9497 12.6831 11.0669C12.8003 11.1842 12.9592 11.25 13.125 11.25H15.375C15.5408 11.25 15.6997 11.1842 15.8169 11.0669C15.9342 10.9497 16 10.7908 16 10.625C16 10.4592 15.9342 10.3003 15.8169 10.1831C15.6997 10.0658 15.5408 10 15.375 10H13.125ZM0 2V14.875C0 15.7038 0.32924 16.4987 0.915291 17.0847C1.50134 17.6708 2.2962 18 3.125 18H15.375C16.2038 18 16.9987 17.6708 17.5847 17.0847C18.1708 16.4987 18.5 15.7038 18.5 14.875V6.125C18.5 5.40464 18.2511 4.7064 17.7956 4.14837C17.3401 3.59034 16.7058 3.20676 16 3.0625V2.125C16 1.56141 15.7761 1.02091 15.3776 0.622398C14.9791 0.223883 14.4386 7.60389e-09 13.875 7.60389e-09H2.125C1.58302 -4.58133e-05 1.06151 0.206997 0.667148 0.578774C0.272786 0.95055 0.035381 1.45896 0.00349998 2H0ZM14.75 2.125V3H2.125C1.89294 3 1.67038 2.90781 1.50628 2.74372C1.34219 2.57962 1.25 2.35706 1.25 2.125C1.25 1.89294 1.34219 1.67038 1.50628 1.50628C1.67038 1.34219 1.89294 1.25 2.125 1.25H13.875C14.3585 1.25 14.75 1.642 14.75 2.125ZM1.25 4.25H15.375C15.8723 4.25 16.3492 4.44754 16.7008 4.79917C17.0525 5.15081 17.25 5.62772 17.25 6.125V14.875C17.25 15.3723 17.0525 15.8492 16.7008 16.2008C16.3492 16.5525 15.8723 16.75 15.375 16.75H3.125C2.62772 16.75 2.15081 16.5525 1.79917 16.2008C1.44754 15.8492 1.25 15.3723 1.25 14.875V4.25Z" fill="#F1FCF2"/>
</svg>
