<svg width="40" height="24" viewBox="0 0 40 24" fill="none" xmlns="http://www.w3.org/2000/svg">
<g clip-path="url(#clip0_2670_4753)">
<path fill-rule="evenodd" clip-rule="evenodd" d="M18 4C18 3.73478 17.8946 3.48043 17.7071 3.29289C17.5196 3.10536 17.2652 3 17 3C16.7348 3 16.4804 3.10536 16.2929 3.29289C16.1054 3.48043 16 3.73478 16 4V5H4C3.73478 5 3.48043 5.10536 3.29289 5.29289C3.10536 5.48043 3 5.73478 3 6C3 6.26522 3.10536 6.51957 3.29289 6.70711C3.48043 6.89464 3.73478 7 4 7H16V8C16 8.26522 16.1054 8.51957 16.2929 8.70711C16.4804 8.89464 16.7348 9 17 9C17.2652 9 17.5196 8.89464 17.7071 8.70711C17.8946 8.51957 18 8.26522 18 8V7H20C20.2652 7 20.5196 6.89464 20.7071 6.70711C20.8946 6.51957 21 6.26522 21 6C21 5.73478 20.8946 5.48043 20.7071 5.29289C20.5196 5.10536 20.2652 5 20 5H18V4ZM4 11C3.73478 11 3.48043 11.1054 3.29289 11.2929C3.10536 11.4804 3 11.7348 3 12C3 12.2652 3.10536 12.5196 3.29289 12.7071C3.48043 12.8946 3.73478 13 4 13H6V14C6 14.2652 6.10536 14.5196 6.29289 14.7071C6.48043 14.8946 6.73478 15 7 15C7.26522 15 7.51957 14.8946 7.70711 14.7071C7.89464 14.5196 8 14.2652 8 14V13H20C20.2652 13 20.5196 12.8946 20.7071 12.7071C20.8946 12.5196 21 12.2652 21 12C21 11.7348 20.8946 11.4804 20.7071 11.2929C20.5196 11.1054 20.2652 11 20 11H8V10C8 9.73478 7.89464 9.48043 7.70711 9.29289C7.51957 9.10536 7.26522 9 7 9C6.73478 9 6.48043 9.10536 6.29289 9.29289C6.10536 9.48043 6 9.73478 6 10V11H4ZM3 18C3 17.7348 3.10536 17.4804 3.29289 17.2929C3.48043 17.1054 3.73478 17 4 17H16V16C16 15.7348 16.1054 15.4804 16.2929 15.2929C16.4804 15.1054 16.7348 15 17 15C17.2652 15 17.5196 15.1054 17.7071 15.2929C17.8946 15.4804 18 15.7348 18 16V17H20C20.2652 17 20.5196 17.1054 20.7071 17.2929C20.8946 17.4804 21 17.7348 21 18C21 18.2652 20.8946 18.5196 20.7071 18.7071C20.5196 18.8946 20.2652 19 20 19H18V20C18 20.2652 17.8946 20.5196 17.7071 20.7071C17.5196 20.8946 17.2652 21 17 21C16.7348 21 16.4804 20.8946 16.2929 20.7071C16.1054 20.5196 16 20.2652 16 20V19H4C3.73478 19 3.48043 18.8946 3.29289 18.7071C3.10536 18.5196 3 18.2652 3 18Z" fill="#F1FCF2"/>
</g>
<path d="M36.6667 10.7802C36.667 10.8798 36.645 10.9782 36.6024 11.0682C36.5597 11.1582 36.4974 11.2375 36.42 11.3002L32.42 14.5202C32.3007 14.6183 32.1511 14.6719 31.9967 14.6719C31.8423 14.6719 31.6926 14.6183 31.5734 14.5202L27.5734 11.1869C27.4372 11.0737 27.3516 10.9111 27.3353 10.7348C27.3191 10.5585 27.3735 10.383 27.4867 10.2469C27.5998 10.1107 27.7625 10.0251 27.9387 10.0089C28.115 9.99262 28.2905 10.0471 28.4267 10.1602L32 13.1402L35.5734 10.2602C35.6712 10.1787 35.7904 10.1269 35.9167 10.111C36.0431 10.0951 36.1714 10.1157 36.2864 10.1704C36.4014 10.2251 36.4984 10.3116 36.5658 10.4197C36.6332 10.5277 36.6682 10.6529 36.6667 10.7802Z" fill="#50A040"/>
<defs>
<clipPath id="clip0_2670_4753">
<rect width="24" height="24" fill="white"/>
</clipPath>
</defs>
</svg>
