<svg width="24" height="24" viewBox="0 0 24 24" fill="none" xmlns="http://www.w3.org/2000/svg">
<path d="M5.77778 11.1111C5.28889 11.1111 4.87022 10.9369 4.52178 10.5884C4.17393 10.2406 4 9.82222 4 9.33333V5.77778C4 5.28889 4.17393 4.87022 4.52178 4.52178C4.87022 4.17393 5.28889 4 5.77778 4H18.2222C18.7111 4 19.1298 4.17393 19.4782 4.52178C19.8261 4.87022 20 5.28889 20 5.77778V9.33333C20 9.82222 19.8261 10.2406 19.4782 10.5884C19.1298 10.9369 18.7111 11.1111 18.2222 11.1111H5.77778ZM5.77778 20C5.28889 20 4.87022 19.8261 4.52178 19.4782C4.17393 19.1298 4 18.7111 4 18.2222V14.6667C4 14.1778 4.17393 13.7591 4.52178 13.4107C4.87022 13.0628 5.28889 12.8889 5.77778 12.8889H18.2222C18.7111 12.8889 19.1298 13.0628 19.4782 13.4107C19.8261 13.7591 20 14.1778 20 14.6667V18.2222C20 18.7111 19.8261 19.1298 19.4782 19.4782C19.1298 19.8261 18.7111 20 18.2222 20H5.77778Z" fill="#F1FCF2"/>
<rect x="0.5" y="0.5" width="23" height="23" rx="3.5" stroke="#50A040"/>
</svg>
