<svg width="60" height="35" viewBox="0 0 60 35" fill="none" xmlns="http://www.w3.org/2000/svg">
<path d="M49.5 32C45.3579 32 42 28.6422 42 24.5C42 20.3579 45.3579 17 49.5 17" stroke="#F1FCF2" stroke-width="2" stroke-linecap="round"/>
<path d="M49.5 17C53.6422 17 57 20.3579 57 24.5C57 28.6422 53.6422 32 49.5 32" stroke="#F1FCF2" stroke-width="2" stroke-linecap="round"/>
<path d="M49.5 27.833V21.583" stroke="#F1FCF2" stroke-width="2" stroke-linecap="round"/>
<path d="M52.4166 24.4997L49.4999 21.583L46.5833 24.4997" stroke="#F1FCF2" stroke-width="2" stroke-linecap="round"/>
<path fill-rule="evenodd" clip-rule="evenodd" d="M15.5 0.5C7.21573 0.5 0.5 7.21573 0.5 15.5C0.5 23.7843 7.21575 30.5 15.5 30.5H40.4283C39.1777 28.7616 38.4412 26.6286 38.4412 24.3235C38.4412 18.4758 43.1817 13.7353 49.0294 13.7353C52.3178 13.7353 55.2561 15.2344 57.1982 17.5864C57.293 16.9046 57.3421 16.208 57.3421 15.5C57.3421 7.21573 50.6264 0.5 42.3421 0.5H15.5Z" fill="#50A040"/>
<path d="M26.52 20.3201C26.2534 20.4934 25.9832 20.5033 25.7096 20.3497C25.4366 20.1966 25.3 19.9601 25.3 19.6401V11.3601C25.3 11.0401 25.4366 10.8033 25.7096 10.6497C25.9832 10.4966 26.2534 10.5067 26.52 10.6801L33.04 14.8201C33.28 14.9801 33.4 15.2067 33.4 15.5001C33.4 15.7934 33.28 16.0201 33.04 16.1801L26.52 20.3201Z" fill="#F1FCF2"/>
</svg>
